<svg xmlns="http://www.w3.org/2000/svg" viewBox="0 0 64 64"><path d="M32,11A21,21,0,1,0,53,32,21,21,0,0,0,32,11ZM45.92,45.38A1,1,0,0,1,45,46H40a1,1,0,0,1-.71-.29l-6.58-6.59a1,1,0,0,0-1.42,0l-6.58,6.59A1,1,0,0,1,24,46H19a1,1,0,0,1-.92-.62,1,1,0,0,1,.21-1.09L28.46,34.12a5,5,0,0,1,7.08,0L45.71,44.29A1,1,0,0,1,45.92,45.38Zm-.21-25.67L35.54,29.88a5,5,0,0,1-7.08,0L18.29,19.71a1,1,0,0,1-.21-1.09A1,1,0,0,1,19,18h5a1,1,0,0,1,.71.29l6.58,6.59a1,1,0,0,0,1.42,0l6.58-6.59A1,1,0,0,1,40,18h5a1,1,0,0,1,.92.62A1,1,0,0,1,45.71,19.71Z"/><path d="M29.88,35.54,21.41,44h2.18l6.29-6.29a3,3,0,0,1,4.24,0L40.41,44h2.18l-8.47-8.46A3,3,0,0,0,29.88,35.54Z"/><path d="M32,5A27,27,0,1,0,59,32,27,27,0,0,0,32,5Zm0,50A23,23,0,1,1,55,32,23,23,0,0,1,32,55Z"/><path d="M34.12,26.29a3,3,0,0,1-4.24,0L23.59,20H21.41l8.47,8.46a3,3,0,0,0,4.24,0L42.59,20H40.41Z"/></svg>